<?xml version="1.0" standalone="no"?>
<!DOCTYPE svg PUBLIC "-//W3C//DTD SVG 20010904//EN"
 "http://www.w3.org/TR/2001/REC-SVG-20010904/DTD/svg10.dtd">
<svg version="1.0" xmlns="http://www.w3.org/2000/svg"
 width="260.000000pt" height="260.000000pt" viewBox="0 0 260.000000 260.000000"
 preserveAspectRatio="xMidYMid meet">
<metadata>
Created by potrace 1.14, written by Peter Selinger 2001-2017
</metadata>
<g transform="translate(0.000000,260.000000) scale(0.100000,-0.100000)"
fill="#000000" stroke="none">
<path d="M762 2573 c-6 -16 -21 -64 -33 -108 -12 -44 -32 -109 -45 -145 -40
-112 -65 -237 -66 -329 -1 -85 -1 -87 -37 -124 -46 -49 -93 -69 -140 -61 -57
10 -132 33 -147 45 -9 7 -14 8 -14 1 0 -6 14 -22 32 -37 30 -26 36 -27 130
-23 54 1 98 1 98 -1 0 -14 -115 -143 -143 -160 -46 -28 -138 -37 -199 -18 -55
17 -54 6 1 -23 25 -12 52 -18 78 -15 43 4 169 51 179 66 3 5 9 9 15 9 5 0 2
-17 -7 -37 -33 -75 -85 -226 -80 -231 3 -3 8 1 10 9 90 262 186 456 318 637
67 93 70 92 23 -7 -36 -76 -63 -168 -95 -326 -37 -181 -47 -312 -28 -374 12
-40 13 -33 11 100 l-1 144 10 -100 c12 -132 26 -198 44 -221 14 -18 14 -17 3
6 -21 42 -23 214 -5 335 32 209 93 394 189 579 63 122 136 203 230 258 68 39
76 41 170 46 96 5 101 4 119 -19 28 -36 60 -100 69 -137 8 -37 -9 -360 -41
-747 -11 -137 -22 -277 -24 -310 -3 -33 -7 -94 -11 -135 -6 -91 1 -82 10 13 5
54 10 67 24 67 9 0 61 -47 114 -105 53 -58 97 -102 97 -98 0 5 -18 34 -40 66
-38 56 -80 152 -80 182 0 8 -5 15 -11 15 -6 0 3 16 20 35 17 19 38 50 47 68 9
17 21 35 26 38 5 3 31 -15 58 -41 57 -56 167 -140 183 -140 6 0 1 7 -11 16
-12 8 -22 22 -22 30 0 8 -5 12 -11 9 -25 -16 -79 68 -79 125 0 41 21 92 49
120 14 14 36 44 49 65 l23 40 -6 -55 c-3 -30 -8 -80 -11 -110 l-5 -55 19 65
c10 36 29 101 41 145 23 79 42 119 35 73 -18 -130 -6 -136 25 -13 32 129 51
295 51 452 l0 147 38 40 37 40 -44 -34 -43 -34 -72 13 c-138 25 -145 25 -166
6 -26 -24 -25 -29 11 -83 22 -32 29 -52 24 -69 -9 -37 -67 -163 -74 -163 -13
0 -39 98 -30 109 5 6 2 5 -6 -2 -9 -8 -19 -40 -23 -78 -6 -56 -10 -64 -29 -67
-13 -2 -23 -10 -23 -18 0 -13 3 -13 22 0 28 20 38 20 38 1 0 -9 -6 -12 -15 -9
-11 4 -15 -1 -15 -17 0 -39 -19 -205 -25 -225 -4 -12 0 -9 9 6 9 14 15 49 16
80 0 74 10 130 23 130 18 0 -1 -160 -28 -234 -27 -72 -27 -106 0 -43 8 21 18
37 20 37 10 0 -6 -104 -27 -175 -39 -136 -80 -188 -144 -183 l-39 3 3 75 c2
41 7 98 12 125 5 28 12 76 15 108 4 31 10 55 15 52 4 -3 10 9 12 25 3 16 0 31
-6 33 -5 2 -6 9 -1 17 6 10 12 6 22 -14 13 -24 12 -30 -1 -51 -9 -13 -13 -31
-10 -39 9 -23 23 -20 17 3 -3 11 -1 27 5 37 9 15 11 14 27 -9 17 -26 55 -37
55 -16 0 5 -4 8 -9 4 -12 -7 -76 71 -91 110 -8 22 -7 48 4 109 9 45 23 133 31
196 9 63 18 126 21 140 13 65 38 380 31 387 -16 15 -25 -16 -29 -98 -3 -53
-11 -95 -18 -102 -10 -10 -11 10 -6 96 l7 107 -127 0 -128 0 34 -35 c19 -19
29 -35 23 -35 -6 0 -25 16 -42 35 -30 34 -32 35 -110 35 -75 0 -80 -1 -84 -22
l-4 -23 -2 23 c-1 21 -4 22 -100 22 l-99 0 -7 -52 c-17 -121 -76 -330 -120
-423 -24 -52 -48 -95 -51 -95 -11 0 5 250 21 323 8 38 32 108 54 158 34 77 37
89 21 89 -10 0 -22 -12 -28 -27z m618 -33 c18 -28 30 -53 27 -56 -9 -10 -57
28 -57 45 0 9 -3 26 -6 39 -10 35 1 26 36 -28z m-220 -14 c0 -3 -4 -8 -10 -11
-5 -3 -10 -1 -10 4 0 6 5 11 10 11 6 0 10 -2 10 -4z m181 -23 c13 -16 12 -17
-3 -4 -10 7 -18 15 -18 17 0 8 8 3 21 -13z m-186 -12 c3 -5 1 -12 -5 -16 -5
-3 -10 1 -10 9 0 18 6 21 15 7z m-228 -108 c-19 -61 -56 -148 -63 -150 -5 -2
-10 17 -11 42 -1 29 3 45 10 45 7 0 20 18 29 40 16 39 46 58 35 23z m563 -58
c0 -19 -4 -35 -10 -35 -5 0 -10 16 -10 35 0 19 5 35 10 35 6 0 10 -16 10 -35z
m368 -40 c23 -7 23 -7 17 -149 -3 -78 -10 -168 -15 -201 -5 -33 -10 -78 -11
-100 -2 -93 -27 68 -46 289 -5 67 -4 80 10 88 21 11 22 32 2 24 -12 -4 -15 3
-15 30 0 37 -3 36 58 19z m-1038 -89 c0 -2 -7 -9 -15 -16 -13 -11 -14 -10 -9
4 5 14 24 23 24 12z m1127 -63 c-3 -10 -5 -4 -5 12 0 17 2 24 5 18 2 -7 2 -21
0 -30z m-306 -146 c-10 -9 -11 -8 -5 6 3 10 9 15 12 12 3 -3 0 -11 -7 -18z
m10 -109 c-2 -29 2 -120 8 -203 21 -264 21 -283 5 -289 -20 -8 -64 22 -64 43
0 9 7 39 16 66 12 36 18 104 21 243 3 105 8 192 12 192 3 0 4 -24 2 -52z m98
-35 c0 -10 -4 -27 -9 -38 -7 -16 -9 -13 -9 18 -1 20 4 37 9 37 6 0 10 -8 9
-17z m-59 -493 c0 -5 -2 -10 -4 -10 -3 0 -8 5 -11 10 -3 6 -1 10 4 10 6 0 11
-4 11 -10z m-250 -85 c-13 -14 -25 -24 -26 -22 -9 9 -2 21 18 32 33 19 34 18
8 -10z m45 -35 c4 -6 1 -18 -7 -27 -11 -14 -11 -16 3 -11 13 5 16 2 12 -12 -5
-17 -7 -17 -29 7 -13 14 -24 32 -24 39 0 16 36 19 45 4z"/>
<path d="M1587 2568 c7 -59 44 -242 58 -289 12 -41 11 -48 -3 -62 -14 -15 -13
-16 5 -11 19 5 20 16 26 182 3 97 9 185 12 195 6 15 0 17 -47 17 l-55 0 4 -32z"/>
<path d="M1560 2212 c0 -5 7 -15 15 -22 27 -22 28 -49 3 -83 -28 -38 -51 -87
-40 -87 4 0 17 23 30 50 13 28 30 50 37 50 25 0 17 36 -15 70 -16 18 -30 28
-30 22z"/>
<path d="M1690 2125 c-14 -8 -20 -14 -15 -14 6 0 21 6 35 14 14 8 21 14 15 14
-5 0 -21 -6 -35 -14z"/>
<path d="M852 1913 c-15 -26 -17 -96 -3 -73 6 8 8 18 5 22 -3 4 0 17 6 28 6
12 10 26 7 33 -2 7 -9 3 -15 -10z"/>
<path d="M1973 1870 c0 -36 2 -50 4 -32 2 17 2 47 0 65 -2 17 -4 3 -4 -33z"/>
<path d="M1020 1810 c0 -22 13 -72 29 -112 36 -92 140 -412 182 -563 18 -63
34 -113 36 -111 7 7 -65 259 -128 450 -65 195 -99 317 -99 353 0 13 -4 23 -10
23 -5 0 -10 -18 -10 -40z"/>
<path d="M1951 1714 c0 -11 3 -14 6 -6 3 7 2 16 -1 19 -3 4 -6 -2 -5 -13z"/>
<path d="M2020 1664 c0 -11 38 -74 45 -74 2 0 -5 17 -17 38 -27 46 -28 48 -28
36z"/>
<path d="M1496 1628 c-3 -13 0 -29 7 -36 11 -10 12 -6 9 23 -5 41 -8 43 -16
13z"/>
<path d="M803 1595 c0 -22 2 -30 4 -17 2 12 2 30 0 40 -3 9 -5 -1 -4 -23z"/>
<path d="M900 1530 c0 -16 4 -30 9 -30 5 0 8 14 7 30 0 17 -4 30 -8 30 -5 0
-8 -13 -8 -30z"/>
<path d="M816 1492 c5 -54 32 -137 41 -128 3 3 -2 24 -11 48 -9 24 -21 63 -26
88 l-9 45 5 -53z"/>
<path d="M915 1398 c3 -54 2 -98 -1 -98 -3 0 -15 10 -26 23 l-20 22 7 -25 c3
-14 10 -40 15 -58 4 -18 12 -38 17 -45 14 -18 30 -88 48 -210 l16 -108 -25
-33 c-21 -28 -37 -36 -93 -49 -126 -30 -144 -30 -224 -3 -41 13 -105 27 -144
31 -60 6 -78 13 -125 47 l-55 39 44 -40 c24 -23 73 -56 110 -74 59 -29 75 -32
171 -35 155 -4 348 33 336 64 -10 26 4 14 16 -13 19 -47 21 -3 4 89 -16 87
-38 251 -61 453 l-14 120 4 -97z m-324 -596 c-13 -2 -27 0 -32 5 -6 6 3 7 23
4 28 -4 29 -6 9 -9z"/>
<path d="M1790 1369 c0 -16 4 -28 9 -25 8 5 3 56 -5 56 -2 0 -4 -14 -4 -31z"/>
<path d="M371 1354 c0 -11 3 -14 6 -6 3 7 2 16 -1 19 -3 4 -6 -2 -5 -13z"/>
<path d="M1811 1340 c-1 -3 8 -29 19 -58 25 -66 25 -87 -1 -184 l-21 -79 21
-87 c12 -48 24 -95 27 -104 4 -12 1 -16 -8 -13 -8 3 -22 -1 -32 -8 -17 -13
-16 -15 15 -42 31 -26 32 -28 9 -21 -14 3 -77 14 -140 23 -122 17 -235 60
-244 92 -14 45 -36 203 -36 254 0 33 -4 57 -11 57 -12 0 -4 -106 17 -220 20
-108 20 -109 -18 -101 l-33 7 -6 89 -5 90 -2 -82 c-2 -88 -9 -98 -45 -65 -20
17 -20 16 -13 -13 4 -16 20 -49 36 -72 45 -65 75 -216 75 -378 0 -110 -5 -150
-30 -257 -29 -125 -30 -127 -55 -121 -14 3 -36 17 -48 32 l-24 26 13 -25 c36
-72 48 -80 121 -80 64 0 69 2 78 26 13 32 13 34 -2 34 -7 0 -19 4 -26 9 -17
10 -5 37 59 143 26 42 49 85 51 95 6 30 96 74 144 70 l40 -4 53 85 c44 71 51
89 42 104 -12 20 -1 30 82 69 49 24 47 24 135 -8 21 -9 13 31 -9 46 -12 7 -52
24 -88 38 -74 28 -81 34 -81 81 0 18 -12 79 -26 135 l-26 102 19 60 c24 81 23
159 -4 215 -12 25 -22 43 -22 40z m-454 -502 c-3 -8 -6 -5 -6 6 -1 11 2 17 5
13 3 -3 4 -12 1 -19z m144 -35 c36 -14 39 -17 23 -26 -13 -7 -19 -7 -22 2 -2
6 -25 -12 -50 -40 l-46 -51 -13 53 c-7 30 -12 64 -13 75 0 20 3 21 40 13 22
-5 58 -16 81 -26z m349 -27 c0 -5 -7 -3 -15 4 -8 7 -12 17 -9 22 7 10 24 -9
24 -26z"/>
<path d="M237 1081 c-63 -69 -74 -104 -53 -175 l15 -48 -38 -52 c-83 -111 -96
-175 -63 -313 12 -49 28 -119 37 -158 8 -38 33 -107 54 -151 42 -88 111 -197
111 -176 0 8 -13 33 -30 57 -67 97 -127 242 -136 324 -2 25 -12 69 -21 96 -10
28 -17 81 -18 120 0 94 24 142 88 172 42 20 46 25 38 45 -5 13 -17 50 -26 84
-17 59 -17 62 3 106 11 25 36 57 55 72 30 23 55 56 43 56 -2 0 -29 -27 -59
-59z"/>
<path d="M257 1053 c-12 -11 -8 -38 8 -59 13 -18 14 -16 15 24 0 39 -8 51 -23
35z"/>
<path d="M989 758 c-33 -64 -91 -115 -253 -223 -157 -106 -179 -117 -247 -131
-73 -16 -114 -38 -103 -56 8 -13 69 -1 118 24 22 11 126 78 231 148 176 117
245 160 260 160 3 0 3 -82 -1 -182 l-7 -182 -39 -72 c-38 -71 -88 -200 -88
-229 0 -12 15 -15 75 -15 l75 0 0 280 c0 154 3 280 8 280 4 -1 18 -23 31 -50
13 -28 29 -50 34 -50 5 0 6 8 2 18 -13 34 -65 257 -65 279 0 29 -16 29 -31 1z
m38 -175 c-3 -10 -5 -4 -5 12 0 17 2 24 5 18 2 -7 2 -21 0 -30z"/>
<path d="M2130 590 c8 -5 20 -10 25 -10 6 0 3 5 -5 10 -8 5 -19 10 -25 10 -5
0 -3 -5 5 -10z"/>
<path d="M2190 565 c14 -8 30 -14 35 -14 6 0 -1 6 -15 14 -14 8 -29 14 -35 14
-5 0 1 -6 15 -14z"/>
<path d="M2380 470 c14 -11 30 -20 37 -20 6 0 26 -12 45 -27 18 -15 26 -19 18
-9 -17 22 -99 76 -114 76 -6 0 0 -9 14 -20z"/>
<path d="M2330 137 c0 -2 15 -16 33 -33 l32 -29 -29 33 c-28 30 -36 37 -36 29z"/>
<path d="M2416 39 c16 -20 31 -34 33 -32 3 2 -10 18 -29 36 l-34 32 30 -36z"/>
</g>
</svg>
